# xmcd
#
# Track frame offsets:
#	150
#	12487
#	24087
#	38287
#	50577
#	62157
#
# Disc length: 1013 seconds
#
# Revision: 1
# Processed by: cddbd v1.5.1PL0 Copyright (c) Steve Scherf et al.
# Submitted via: CDex 1.50Beta5
#
DISCID=3e03f306
DTITLE=ガレージ - ガレージ・オープニングソング集
DYEAR=1999
DGENRE=Rock
TTITLE0=バン・バン・バン
TTITLE1=シーサイド・バウンド
TTITLE2=神様お願い
TTITLE3=バン・バン・バン
TTITLE4=シーサイド・バウンド
TTITLE5=神様お願い
EXTD=
EXTT0=
EXTT1=
EXTT2=
EXTT3=
EXTT4=
EXTT5=
PLAYORDER=
